<?xml version="1.0" encoding="UTF-8"?>
<!DOCTYPE svg PUBLIC "-//W3C//DTD SVG 1.1//EN" "http://www.w3.org/Graphics/SVG/1.1/DTD/svg11.dtd">
<!-- Creator: CorelDRAW 2020 (64-Bit) -->
<svg xmlns="http://www.w3.org/2000/svg" xml:space="preserve" width="588px" height="337px" version="1.1" style="shape-rendering:geometricPrecision; text-rendering:geometricPrecision; image-rendering:optimizeQuality; fill-rule:evenodd; clip-rule:evenodd"
viewBox="0 0 588 337.12"
 xmlns:xlink="http://www.w3.org/1999/xlink"
 xmlns:xodm="http://www.corel.com/coreldraw/odm/2003">
 <defs>
  <style type="text/css">
   <![CDATA[
    .str0 {stroke:#373435;stroke-width:2.08;stroke-miterlimit:2.61313}
    .str1 {stroke:#F8484B;stroke-width:2.08;stroke-miterlimit:2.61313}
    .fil2 {fill:none}
    .fil1 {fill:#FEFEFE}
    .fil0 {fill:#F8484B}
    .fil3 {fill:#3A2769;fill-rule:nonzero}
   ]]>
  </style>
 </defs>
 <g id="Layer_x0020_1">
  <metadata id="CorelCorpID_0Corel-Layer"/>
  <g id="_3092841785088">
   <path class="fil0 str0" d="M355.18 311.56l0.35 22.88c0,0 8.81,6.22 17.83,0.92l-0.05 -19.96 -18.13 -3.84z"/>
   <path class="fil0" d="M102.36 277.13c0,-2.12 -0.3,-19.26 -0.3,-19.26l17.31 3.67 0.24 15.11c0,0 -8.19,8.28 -17.25,0.48z"/>
   <path class="fil0" d="M506.74 261.02l0.06 17.77c0,0 -8.13,5.9 -16.2,-0.06l-0.14 -7.02 16.28 -10.69z"/>
   <path class="fil0" d="M284.54 247.94l-9.82 -1.91 28.92 -14.46c0,0 2.15,-1.13 0.16,-2.37 -2,-1.25 -5.99,1.24 -5.99,1.24l-27.36 14.76 -9.29 -1.8 20.89 -11.29c0,0 1.73,-1.03 0.59,-2.43 -1.13,-1.4 -5.71,1.03 -5.71,1.03l-20.94 11.22 -9.24 -1.33 15.17 -8.38c0,0 1.84,-0.81 1.03,-1.95 -0.81,-1.13 -1.94,-1.83 -3.94,-0.7 -2,1.14 -17.6,9.99 -17.6,9.99l-8.38 -1.63 9.63 -5.98c0,0 1.67,-0.97 0.97,-2.48 -0.7,-1.52 -4.15,0.7 -4.15,0.7l-10.98 6.88 -9.65 -1.87 5.94 -4.06c0,0 1.76,-1.19 0.24,-2.29 -1.51,-1.1 -2.72,0.06 -2.72,0.06l-7.78 5.45 -10.26 -2 2.35 -1.68c0,0 0.94,-1.09 -0.42,-1.77 -1.36,-0.68 -2.61,0.1 -2.61,0.1l-3.03 2.63c0,0 -13.62,-4.16 -23.69,-1.91l214.59 42.06c0,0 2.12,1.24 0.32,2.06 -1.8,0.81 -5.12,0 -5.12,0l-205.89 -41.29c0,0 -22.64,-5.3 -45.71,-2.38l272.52 54.31 0.36 34.48 -351.05 -73.86 0.16 -15.82 -5.29 0.15 -0.42 19.97 357.14 77.16 117.25 -73.16 1.1 -23.97 -5.51 0 -1.1 20.11 -106.09 66 -0.42 -31.97c0,0 50.57,-20.11 72.2,-51.25 0,0 1.97,-3.23 -0.23,-4.64 -2.21,-1.42 -7.72,4.41 -7.72,4.41 0,0 -26.16,32.77 -65.39,46 0,0 -7.33,1.11 -16.47,-3.23 0,0 46.08,-9.07 72.17,-43.1 0,0 1.81,-1.77 0.62,-2.34 -1.19,-0.56 -2.5,0.91 -2.5,0.91 0,0 -2.1,1.65 -2.95,3.75 -0.85,2.1 -16.47,-7.63 -52.11,-4.11l-5.37 -3.91c0,0 -37.15,17.06 -65.85,32.69l-9.04 -1.76 51.51 -26.45c0,0 1.43,-0.74 1.45,-1.49 0.02,-0.85 -1.62,-1.43 -4.63,-0.35 -6.05,2.18 -53.2,27.34 -53.2,27.34l-9 -1.75 42.38 -21.92c1.48,-0.29 1.51,-3.71 -2.93,-2.4 -4.44,1.31 -44.62,23.24 -44.62,23.24l-9.35 -1.74 37.66 -19.65c0,0 2,-1.41 0.71,-2.63 -1.28,-1.22 -5.9,1.67 -5.9,1.67l-37.08 19.72 -8.94 -1.74 34.59 -18.49c1.48,-0.8 0.5,-2.89 -2.1,-2.11 -8.06,2.43 -33.68,17.81 -37.08,19.71z"/>
   <polygon class="fil1" points="345.04,259.62 401.16,230.38 409.83,231.91 353.08,261.2 "/>
   <polygon class="fil1" points="358.43,262.2 368.24,264.19 425.13,234.36 415.54,232.42 "/>
   <polygon class="fil1" points="372.98,265.13 430.92,235.03 440.47,236.89 381.82,266.87 "/>
   <path class="fil1" d="M386.86 267.86l58.78 -30.58 10.61 2.26c0,0 -26.74,23.84 -56.98,30.77l-12.41 -2.45z"/>
   <path class="fil0" d="M233.72 180.94c0,0 2.47,4.04 9.09,4.43l-6.49 3.28c0,0 -1.18,-2.04 -14.95,-1.18 -13.77,0.85 -16.07,-1.25 -16.07,-1.25 0,0 -4.72,-3.87 4.33,-8.59 1.94,-1.01 23.4,-14.29 24.85,-12.85 1.51,1.49 -14.78,9.31 -24.72,15.08 -3,1.74 -3.36,3.78 -1.48,4.66 4.2,1.99 16.61,1.27 16.72,1.27 0,0 2.18,0 8.72,-4.85z"/>
   <path class="fil0" d="M130.37 185.52c0,0 9.87,-0.91 11.54,-2.73 1.67,-1.82 1.06,3.03 15.32,2.12 14.27,-0.91 5.47,-3.34 17,0.91 0,0 1.52,0.76 5.92,0.61 0,0 3.03,2.12 -8.8,1.21 0,0 -4.86,-1.66 -8.5,0 0,0 -11.54,-2.12 -18.97,-0.3 0,0 -21.4,1.21 -13.51,-1.82z"/>
   <path class="fil0" d="M97.76 181.41c-2.65,0 -5.1,2.41 -5.1,3.92 0,1.52 2.15,2.75 4.81,2.75 2.65,0 5.49,-2.9 5.49,-4.41 0,-1.52 -2.55,-2.26 -5.2,-2.26z"/>
   <path class="fil0" d="M109.69 184.6c-1.34,0 -2.43,0.76 -2.43,1.7 0,0.94 1.09,1.71 2.43,1.71 1.34,0 2.43,-0.77 2.43,-1.71 0,-0.94 -1.09,-1.7 -2.43,-1.7z"/>
   <polygon class="fil0" points="261.81,199.25 266.09,200.25 267.16,208.08 264.48,208.65 "/>
   <path class="fil0" d="M369.16 180.22c0,0 -2.61,4.15 -11.48,4.96 0,0 -4.39,0.41 -4.31,3.75 0.08,3.33 3.42,-3.1 7.98,-1.63 4.55,1.46 8.95,-4.4 8.95,-4.4 0,0 3.17,-3.82 -1.14,-2.68z"/>
   <polygon class="fil0" points="501.3,181.15 507.52,184.41 507.52,186.45 501.3,186.45 "/>
   <path class="fil0" d="M489.52 180.96c-1.29,-0.35 -2.77,0.97 -3.3,2.95 -0.53,1.98 0.09,3.86 1.38,4.21 1.29,0.35 2.77,-0.98 3.3,-2.95 0.53,-1.98 -0.09,-3.87 -1.38,-4.21z"/>
   <polygon class="fil0" points="530.17,182.79 523.95,184.41 523.95,186.45 530.17,186.45 "/>
   <polygon class="fil0" points="108.9,214.02 111.17,214.02 112.6,225.88 107.94,225.88 "/>
   <polygon class="fil0" points="395.38,159.9 395.64,136.38 411.98,139.54 411.71,143.49 401.17,151.53 401.17,159.9 "/>
   <polygon class="fil0" points="489.71,130.06 504.33,123.6 504.73,129.92 494.71,133.88 "/>
   <path class="fil0" d="M294.27 122.58c2.24,0.53 28.51,3.83 28.51,3.83 0,0 -13.62,-1.06 -21.38,4.26l-7.88 -3.86 0.75 -4.23z"/>
   <path class="fil0" d="M118.63 53.74c9.08,0 16.44,7.36 16.44,16.44 0,9.08 -7.36,16.44 -16.44,16.44 -9.08,0 -16.44,-7.36 -16.44,-16.44 0,-9.08 7.36,-16.44 16.44,-16.44zm0 5.86c5.84,0 10.58,4.74 10.58,10.58 0,5.84 -4.74,10.58 -10.58,10.58 -5.84,0 -10.58,-4.74 -10.58,-10.58 0,-5.84 4.74,-10.58 10.58,-10.58z"/>
   <path class="fil0" d="M118.63 63.77c3.54,0 6.41,2.87 6.41,6.41 0,3.54 -2.87,6.41 -6.41,6.41 -3.54,0 -6.41,-2.87 -6.41,-6.41 0,-3.54 2.87,-6.41 6.41,-6.41zm0 2.28c2.28,0 4.13,1.85 4.13,4.13 0,2.28 -1.85,4.12 -4.13,4.12 -2.28,0 -4.12,-1.84 -4.12,-4.12 0,-2.28 1.84,-4.13 4.12,-4.13z"/>
   <path class="fil0" d="M371.36 117.75c-8.13,-19.76 10.34,-30.35 23.7,-26.14 15.84,4.99 16.85,28.53 0.32,35.02l0 -6.51c8.88,-6.9 7.88,-20.39 -3.26,-23.71 -8.97,-2.67 -20.64,3.11 -15.9,19.01l-4.86 2.33z"/>
   <path class="fil0" d="M380.42 112.91c-3.79,-9.23 4.83,-14.18 11.07,-12.21 7.4,2.33 7.87,13.32 0.15,16.35l0 -3.04c4.15,-3.22 3.68,-9.52 -1.52,-11.07 -4.19,-1.25 -9.64,1.45 -7.43,8.88l-2.27 1.09z"/>
   <path class="fil0" d="M162.1 58.27l51.79 4.92c4.02,0.38 7.13,3.88 6.93,7.78l-1.06 19.68c-0.2,3.9 -3.66,6.78 -7.68,6.4l-51.79 -4.92c-4.01,-0.38 -7.13,-3.88 -6.92,-7.78l1.05 -19.68c0.21,-3.9 3.67,-6.78 7.68,-6.4zm-3.94 -4.25l59.99 5.93c4.9,0.48 8.71,4.78 8.47,9.54l-1.23 24.03c-0.25,4.76 -4.46,8.26 -9.36,7.78l-59.99 -5.93c-4.91,-0.48 -8.72,-4.78 -8.48,-9.54l1.24 -24.03c0.24,-4.76 4.45,-8.27 9.36,-7.78z"/>
   <path class="fil0" d="M162.2 64.47c2.56,0 4.64,2.08 4.64,4.65 0,2.57 -2.08,4.65 -4.64,4.65 -2.57,0 -4.65,-2.08 -4.65,-4.65 0,-2.57 2.08,-4.65 4.65,-4.65z"/>
   <path class="fil0" d="M162.2 77.92c2.56,0 4.64,2.09 4.64,4.65 0,2.57 -2.08,4.65 -4.64,4.65 -2.57,0 -4.65,-2.08 -4.65,-4.65 0,-2.56 2.08,-4.65 4.65,-4.65z"/>
   <path class="fil0" d="M184.68 80.65c2.56,0 4.64,2.09 4.64,4.65 0,2.57 -2.08,4.65 -4.64,4.65 -2.57,0 -4.65,-2.08 -4.65,-4.65 0,-2.56 2.08,-4.65 4.65,-4.65z"/>
   <path class="fil0" d="M209.33 83.64c2.56,0 4.65,2.08 4.65,4.65 0,2.56 -2.09,4.65 -4.65,4.65 -2.57,0 -4.65,-2.09 -4.65,-4.65 0,-2.57 2.08,-4.65 4.65,-4.65z"/>
   <path class="fil0" d="M209.33 70.18c2.56,0 4.65,2.08 4.65,4.65 0,2.57 -2.09,4.65 -4.65,4.65 -2.57,0 -4.65,-2.08 -4.65,-4.65 0,-2.57 2.08,-4.65 4.65,-4.65z"/>
   <path class="fil0" d="M185.76 67.07c2.57,0 4.65,2.08 4.65,4.65 0,2.57 -2.08,4.65 -4.65,4.65 -2.57,0 -4.65,-2.08 -4.65,-4.65 0,-2.57 2.08,-4.65 4.65,-4.65z"/>
   <path class="fil0" d="M272.63 69.7l60.24 5.4c4.67,0.42 8.3,4.27 8.06,8.56l-1.23 21.63c-0.24,4.29 -4.26,7.45 -8.94,7.04l-60.23 -5.4c-4.68,-0.42 -8.3,-4.28 -8.06,-8.56l1.22 -21.63c0.24,-4.29 4.27,-7.46 8.94,-7.04zm-4.59 -4.67l69.78 6.51c5.7,0.54 10.14,5.26 9.86,10.49l-1.44 26.42c-0.28,5.23 -5.18,9.08 -10.89,8.55l-69.78 -6.52c-5.7,-0.53 -10.14,-5.25 -9.85,-10.49l1.43 -26.41c0.29,-5.24 5.18,-9.09 10.89,-8.55z"/>
   <path class="fil0" d="M269.96 74.71c2.56,0 4.65,2.09 4.65,4.65 0,2.57 -2.09,4.65 -4.65,4.65 -2.57,0 -4.65,-2.08 -4.65,-4.65 0,-2.56 2.08,-4.65 4.65,-4.65z"/>
   <path class="fil0" d="M269.96 90.22c2.56,0 4.65,2.08 4.65,4.64 0,2.57 -2.09,4.65 -4.65,4.65 -2.57,0 -4.65,-2.08 -4.65,-4.65 0,-2.56 2.08,-4.64 4.65,-4.64z"/>
   <path class="fil0" d="M299.14 93.76c2.57,0 4.65,2.08 4.65,4.65 0,2.57 -2.08,4.65 -4.65,4.65 -2.57,0 -4.65,-2.08 -4.65,-4.65 0,-2.57 2.08,-4.65 4.65,-4.65z"/>
   <path class="fil0" d="M329.89 96.51c2.57,0 4.65,2.09 4.65,4.65 0,2.57 -2.08,4.65 -4.65,4.65 -2.56,0 -4.64,-2.08 -4.64,-4.65 0,-2.56 2.08,-4.65 4.64,-4.65z"/>
   <path class="fil0" d="M333.02 79.83c2.57,0 4.65,2.08 4.65,4.65 0,2.57 -2.08,4.65 -4.65,4.65 -2.57,0 -4.65,-2.08 -4.65,-4.65 0,-2.57 2.08,-4.65 4.65,-4.65z"/>
   <path class="fil0" d="M299.93 77.08c2.56,0 4.65,2.08 4.65,4.65 0,2.56 -2.09,4.64 -4.65,4.64 -2.57,0 -4.65,-2.08 -4.65,-4.64 0,-2.57 2.08,-4.65 4.65,-4.65z"/>
   <path class="fil1 str0" d="M81.63 100.27c0,0 -1.14,-50.12 3.01,-62.84 5.48,-16.83 30.68,-25.14 47.58,-26.48 14.02,-1.12 -4.01,4.67 -4.01,4.67 0,0 -36.29,8.97 -37.18,26.47 -0.89,17.51 -1.34,59.26 -1.34,59.26l-8.06 -1.08z"/>
   <polygon class="fil1 str0" points="110.71,30.82 162.2,7.28 177.73,6.82 177.73,14.81 131.47,32.85 "/>
   <path class="fil1 str0" d="M183.57 14.06l0.36 -8.19 284.61 18.3c0,0 -11.36,5.29 -16.5,13.71l-268.47 -23.82z"/>
   <polygon class="fil1" points="180.03,19.71 445.2,43.65 434.75,64.47 143.12,34.18 "/>
   <line class="fil2 str1" x1="154.44" y1="35.41" x2="187.96" y2= "20.43" />
   <line class="fil2 str1" x1="165.91" y1="36.55" x2="199.71" y2= "21.49" />
   <line class="fil2 str1" x1="177.53" y1="37.8" x2="211.38" y2= "22.56" />
   <line class="fil2 str1" x1="189.08" y1="38.91" x2="223.04" y2= "23.67" />
   <line class="fil2 str1" x1="200.5" y1="40.15" x2="234.87" y2= "24.66" />
   <line class="fil2 str1" x1="212.07" y1="41.29" x2="246.57" y2= "25.74" />
   <line class="fil2 str1" x1="223.59" y1="42.47" x2="258.19" y2= "26.86" />
   <line class="fil2 str1" x1="235.44" y1="43.77" x2="270.69" y2= "27.9" />
   <line class="fil2 str1" x1="246.93" y1="44.96" x2="281.76" y2= "28.9" />
   <line class="fil2 str1" x1="258.99" y1="46.22" x2="293.05" y2= "29.92" />
   <line class="fil2 str1" x1="270.11" y1="47.37" x2="306.03" y2= "31.09" />
   <line class="fil2 str1" x1="281.53" y1="48.56" x2="316.77" y2= "32.06" />
   <line class="fil2 str1" x1="293.23" y1="49.77" x2="328.67" y2= "33.13" />
   <line class="fil2 str1" x1="304.77" y1="50.97" x2="340.17" y2= "34.17" />
   <line class="fil2 str1" x1="316.88" y1="52.23" x2="352.62" y2= "35.29" />
   <line class="fil2 str1" x1="327.9" y1="53.37" x2="363.58" y2= "36.28" />
   <line class="fil2 str1" x1="341.37" y1="54.77" x2="376.83" y2= "37.49" />
   <line class="fil2 str1" x1="352.73" y1="55.95" x2="388.3" y2= "38.56" />
   <line class="fil2 str1" x1="364.75" y1="57.2" x2="400.26" y2= "39.59" />
   <line class="fil2 str1" x1="376.92" y1="58.46" x2="412.51" y2= "40.7" />
   <line class="fil2 str1" x1="388.98" y1="59.72" x2="424.19" y2= "41.85" />
   <line class="fil2 str1" x1="399.97" y1="60.86" x2="435.68" y2= "42.79" />
   <line class="fil2 str1" x1="410.11" y1="61.91" x2="444.8" y2= "43.91" />
   <line class="fil2 str1" x1="422.08" y1="63.15" x2="439.81" y2= "54.39" />
   <path class="fil0 str1" d="M75.2 74.31l0 31.33c0,1.52 3.67,1.69 4.75,1.92l10.91 2.41c1.54,0.37 4.47,0.76 5.67,1.34l0 -9c2.95,0.07 21.53,4.6 24.66,5.33l0 20.33 6.66 0 0 -20.33 1.34 0 0 20.33 5.33 0 0 -20.33c11.68,0 3.97,-0.33 10.61,8.72 1.4,1.9 2.98,3.68 4.82,5.18 2.37,1.91 1.57,1.8 1.57,6.1l6 0c8.85,0 15.92,-4.11 22.55,1.77 1,0.89 0.63,1.11 2.11,1.23 0,-2.66 -0.15,-4.5 -0.33,-6.67 3.51,-0.82 9.88,-6.34 11.66,-9 3.15,0.74 31.41,5.7 32.65,5.57 1.11,-0.12 5.79,-5.73 6.34,-6.57 -1.15,-0.02 -3.12,-0.44 -4.09,-0.56l-12.93 -1.74c-5.65,-0.63 -11.66,-1.47 -17.07,-2.26l-102.55 -13.77c0,-1.85 -0.25,-2.14 -0.33,-3.66l-0.34 -12.33c0,-11.3 0.32,-22.73 1.76,-33.57 0.34,-2.49 1.24,-5.37 1.24,-8.09 5.1,0 79.06,7.7 82.96,8.03 3.28,0.27 6.79,0.65 10.3,1.02 10.29,1.1 20.72,1.67 31.2,3.14 6.69,0.93 14.03,1.21 20.61,2.04l20.93 2.07c13.98,1.17 27.6,2.88 41.61,4.06l20.59 2.06c13.45,1.72 28.1,2.44 41.52,4.15 3.5,0.44 7.06,0.69 10.29,1.03 8.38,0.89 23.54,2.58 31.27,3.06 6.57,0.4 14.61,2 21,2 -5.8,10.95 -7.23,16.49 -10.06,28.59 -1.18,5.04 -2.39,10.68 -3.27,16.06 -0.71,4.28 -1.85,13.5 -2.67,17l1 0c0.12,-1.37 0.73,-3.36 1.08,-4.91 0.9,-3.89 2.52,-8.46 5.91,-10.77 2.16,-1.47 2.04,-5.09 3.34,-10.31 1.59,-6.35 3.63,-12.64 5.63,-18.71 0.54,-1.64 0.97,-2.8 1.61,-4.38 4.51,-11.26 9.8,-22.14 17.29,-31.71l2.85 -3.48c5.44,-6.76 12.27,-12.14 19.68,-16.65 8.36,-5.08 18.69,-7.72 29.26,-7.72 -0.8,0.7 -2.32,1.16 -3.45,1.54 -1.49,0.49 -2.53,0.81 -4.01,1.33 -3.84,1.34 -7.52,3.08 -10.89,5.11 -5.51,3.32 -10.32,7.19 -14.89,11.76l-5.09 5.58c-3.02,3.99 -6.14,8.04 -8.55,12.78 -5.71,11.27 -8.62,17.26 -11.97,30.68 -0.65,2.6 -5.26,21.87 -3.5,24.54 0.36,0.55 0.7,0.99 1.1,1.59l3.24 4.76c0.6,0.83 0.41,0.87 1.69,0.98 0,-1.49 0.22,-2.97 0.39,-4.61 1.11,-10.49 2.87,-21.27 5.61,-31.05 2.85,-10.2 6.62,-20.31 12.53,-29.13 1.51,-2.25 2.7,-3.91 4.36,-5.97 4.35,-5.39 10.66,-11.39 16.88,-14.45l10.11 -5.22c5.08,-2.56 13.4,-6.89 19.44,-6.89 9.38,0 9.33,12.75 10.05,19.61 0.19,1.82 0.59,4.74 0.62,6.72 0.02,1.81 0.25,4.94 0.52,6.81 0.69,4.63 0.33,9.42 0.86,14.14 1.01,9.08 0.27,19.2 0.28,28.71l-1.14 20.85c-0.28,1.93 -0.52,5.22 -0.52,7.14 1.15,0.1 4.06,1.5 5,2l0.33 -9c-0.01,-11.93 2.56,-7.2 3,-10.9l0 -0.51 -0.65 -27.26c-0.03,-1.89 -0.36,-2.31 -0.36,-4.31 -0.01,-6.64 -0.33,-12.11 -0.32,-18.67 0,-3.41 -0.34,-5.55 -0.34,-9 0.01,-7.8 -0.56,-17.82 -3.88,-24.45 -8.12,-16.22 -29.94,-12.91 -45.2,-10.97 -6.43,0.81 -13.08,0.31 -19.59,-0.22 -3.34,-0.28 -6.98,0 -10.22,-0.45l-30.42 -1.91c-3.24,-0.17 -7.05,-0.05 -10.14,-0.52l-40.18 -2.48c-3.5,-0.18 -7.02,-0.15 -10.1,-0.57l-30.58 -1.75c-10.72,-0.28 -24.33,-2.09 -34.97,-2.35 -5.19,-0.13 -10.15,-0.88 -15,-1 -7.41,-0.17 -15.28,-1.06 -22.69,-1.64 -0.86,-0.07 -1.77,0.03 -2.63,-0.04 -1.31,-0.1 -3.38,-0.19 -4.97,-0.36 -8.99,-0.98 -18.47,-1.27 -27.36,-1.97 -33.12,-2.6 -42.4,-3.02 -73.32,-0.97 -11.64,0.77 -30.28,4.46 -40.92,8.75 -2.82,1.14 -5.2,1.95 -7.75,3.24 -1.16,0.58 -2.58,1.06 -3.66,1.67l-10.11 6.56c-4.32,3.21 -7.79,7.07 -9.85,12.14 -1.03,2.52 -1.99,5.51 -2.4,8.6 -1.18,8.87 -1.3,17.9 -1.31,26.95l0 3.74 0 0.5 0 0.49z"/>
   <path class="fil1" d="M81.63 100.27c0,0 -1.14,-50.12 3.01,-62.84 5.48,-16.83 30.68,-25.14 47.58,-26.48 14.02,-1.12 -4.01,4.67 -4.01,4.67 0,0 -36.29,8.97 -37.18,26.47 -0.89,17.51 -1.34,59.26 -1.34,59.26l-8.06 -1.08z"/>
   <polygon class="fil1" points="180.03,19.71 445.2,43.65 434.75,64.47 143.12,34.18 "/>
   <line class="fil2 str1" x1="154.44" y1="35.41" x2="187.96" y2= "20.43" />
   <line class="fil2 str1" x1="165.91" y1="36.55" x2="199.71" y2= "21.49" />
   <line class="fil2 str1" x1="177.53" y1="37.8" x2="211.38" y2= "22.56" />
   <line class="fil2 str1" x1="189.08" y1="38.91" x2="223.04" y2= "23.67" />
   <line class="fil2 str1" x1="200.5" y1="40.15" x2="234.87" y2= "24.66" />
   <line class="fil2 str1" x1="212.07" y1="41.29" x2="246.57" y2= "25.74" />
   <line class="fil2 str1" x1="223.59" y1="42.47" x2="258.19" y2= "26.86" />
   <line class="fil2 str1" x1="235.44" y1="43.77" x2="270.69" y2= "27.9" />
   <line class="fil2 str1" x1="246.93" y1="44.96" x2="281.76" y2= "28.9" />
   <line class="fil2 str1" x1="258.99" y1="46.22" x2="293.05" y2= "29.92" />
   <line class="fil2 str1" x1="270.11" y1="47.37" x2="306.03" y2= "31.09" />
   <line class="fil2 str1" x1="281.53" y1="48.56" x2="316.77" y2= "32.06" />
   <line class="fil2 str1" x1="293.23" y1="49.77" x2="328.67" y2= "33.13" />
   <line class="fil2 str1" x1="304.77" y1="50.97" x2="340.17" y2= "34.17" />
   <line class="fil2 str1" x1="316.88" y1="52.23" x2="352.62" y2= "35.29" />
   <line class="fil2 str1" x1="327.9" y1="53.37" x2="363.58" y2= "36.28" />
   <line class="fil2 str1" x1="341.37" y1="54.77" x2="376.83" y2= "37.49" />
   <line class="fil2 str1" x1="352.73" y1="55.95" x2="388.3" y2= "38.56" />
   <line class="fil2 str1" x1="364.75" y1="57.2" x2="400.26" y2= "39.59" />
   <line class="fil2 str1" x1="376.92" y1="58.46" x2="412.51" y2= "40.7" />
   <line class="fil2 str1" x1="388.98" y1="59.72" x2="424.19" y2= "41.85" />
   <line class="fil2 str1" x1="399.97" y1="60.86" x2="435.68" y2= "42.79" />
   <line class="fil2 str1" x1="410.11" y1="61.91" x2="444.8" y2= "43.91" />
   <line class="fil2 str1" x1="422.08" y1="63.15" x2="439.81" y2= "54.39" />
   <polygon class="fil1" points="110.71,30.82 162.2,7.28 177.73,6.82 177.73,14.81 131.47,32.85 "/>
   <path class="fil1" d="M183.57 14.06l0.36 -8.19 284.61 18.3c0,0 -11.36,5.29 -16.5,13.71l-268.47 -23.82z"/>
   <path class="fil3" d="M19.11 163.35c-0.7,9.13 1.25,15.59 8.78,15.59 5.36,0 9.05,-3.31 11.63,-7.56 0.97,4.64 3.69,7.56 9.75,7.56 14.41,0 20.54,-36.06 22.22,-48.02 0.55,-4.25 -0.07,-8.82 -4.18,-8.82 -2.79,0 -5.09,2.36 -5.51,5.35 -0.41,2.84 1.61,4.96 3.77,5.75 -0.77,7.4 -5.65,38.34 -13.45,38.34 -3.62,0 -2.43,-11.34 -2.02,-16.61l2.37 -27.16c0.07,-0.24 -0.07,-0.39 -0.28,-0.39l-9.89 0c-0.21,0 -0.35,0.15 -0.41,0.39l-2.3 27.16c-0.28,3.15 -0.56,6.14 -0.63,8.97 -1.39,3.07 -3.97,7.64 -6.69,7.64 -2.09,0 -3.06,-1.97 -2.57,-8.98l2.23 -31.09c0.41,-5.35 -1.26,-7.24 -5.72,-7.24 -15.11,0 -25.98,15.27 -26.95,26.05 -0.91,8.35 2.16,14.33 11.77,14.33 1.39,0 2.93,-0.16 4.53,-0.55 0.62,-0.16 0.62,-0.39 0.28,-0.71 -3.97,-2.99 -5.64,-7.87 -5.09,-14.09 0.77,-6.77 4.25,-16.3 10.8,-19.29l-2.44 33.38zm77.61 -15.74c1.19,-8.27 -4.04,-10.71 -9.4,-10.71 -10.66,0 -16.16,9.37 -17.83,21.41 -1.74,12.52 2.72,20.63 14.84,20.63 8.77,0 15.81,-5.36 19.22,-15.2 0.14,-0.31 0,-0.47 -0.28,-0.47l-3.41 0c-0.14,0 -0.28,0.08 -0.42,0.32 -2.93,7.24 -7.66,9.13 -11.77,9.13 -6.27,0 -8.29,-6.22 -8.08,-12.68 7.03,-0.39 15.88,-3.38 17.13,-12.43zm-16.71 7.95c0.62,-5.04 3.13,-13.93 7.87,-13.93 2.02,0 2.92,1.57 2.64,3.77 -0.76,5.51 -4.8,9.21 -10.51,10.16zm52.19 7.87c-1.04,2.2 -3.34,8.11 -5.85,8.11 -1.74,0 -0.62,-2.52 -0.21,-5.44l3.9 -27.94c0.07,-0.31 -0.07,-0.47 -0.35,-0.39l-9.61 1.49c-1.6,-1.65 -3.62,-2.36 -5.78,-2.36 -9.89,0 -15.18,10.86 -16.79,22.2 -1.25,8.9 -0.07,19.84 8.43,19.84 3.14,0 7.1,-2.05 10.31,-6.38 0.63,4.41 3.06,6.38 7.45,6.38 6.62,0 9.46,-7.41 12.4,-15.27 0.12,-0.33 0,-0.48 -0.21,-0.48l-3.34 0c-0.21,0 -0.28,0.09 -0.35,0.24zm-15.88 2.6c-1.6,3.07 -3.55,5.11 -5.64,5.11 -4.04,0 -3.42,-8.81 -2.79,-13.3 0.84,-5.9 3.2,-15.19 7.8,-15.19 1.88,0 2.93,1.02 3.62,2.2l-2.99 21.18zm29.97 12.91c2.93,0 5.57,-1.34 7.66,-3.86 1.47,1.18 3.28,1.65 5.23,1.65 6.13,0 10.58,-7 12.74,-12.99 0.07,-0.31 0,-0.47 -0.28,-0.47l-3.34 0c-0.14,0 -0.28,0.08 -0.42,0.32 -1.32,3.3 -4.31,8.58 -7.87,8.58 -1.32,0 -2.3,-0.4 -2.85,-1.58 3.34,-6.22 8.01,-20.31 8.98,-27.16 0.49,-3.62 -0.7,-6.53 -4.18,-6.53 -2.5,0 -4.66,2.13 -5.08,5.04 -0.42,2.75 1.18,4.41 3.2,5.27 -0.76,4.88 -5.08,24.48 -10.65,24.48 -3.63,0 -2.65,-10.39 -2.44,-13.69l1.74 -19.92c0.02,-0.23 -0.14,-0.39 -0.35,-0.39l-8.48 0c-0.2,0 -0.3,0.16 -0.34,0.39 -1.84,10.32 -4.91,19.62 -8.08,27.32 -0.11,0.25 0,0.47 0.28,0.47l3.41 0c0.21,0 0.26,-0.09 0.35,-0.32 0.53,-1.34 1.32,-3.3 2.16,-5.51 -0.56,9.14 -0.65,18.9 8.61,18.9zm47.04 -31.33c1.18,-8.27 -4.04,-10.71 -9.4,-10.71 -10.66,0 -16.16,9.37 -17.83,21.41 -1.74,12.52 2.71,20.63 14.83,20.63 8.78,0 15.81,-5.36 19.23,-15.2 0.13,-0.31 0,-0.47 -0.28,-0.47l-3.42 0c-0.14,0 -0.28,0.08 -0.41,0.32 -2.93,7.24 -7.67,9.13 -11.78,9.13 -6.26,0 -8.28,-6.22 -8.08,-12.68 7.04,-0.39 15.88,-3.38 17.14,-12.43zm-16.72 7.95c0.63,-5.04 3.14,-13.93 7.87,-13.93 2.02,0 2.93,1.57 2.65,3.77 -0.77,5.51 -4.81,9.21 -10.52,10.16zm47.6 5.82l0.97 -7.16c0.07,-0.24 -0.07,-0.39 -0.28,-0.39l-21.17 0c-0.21,0 -0.35,0.15 -0.42,0.39l-0.97 7.16c-0.07,0.24 0.07,0.4 0.28,0.4l21.17 0c0.21,0 0.35,-0.16 0.42,-0.4zm27.05 5.51c-0.49,3.47 -2.37,5.36 -4.67,5.36 -1.6,0 -3.14,-1.11 -4.39,-2.37 -0.49,-0.39 -0.7,-0.23 -0.63,0.4 0.63,6.69 3.9,8.66 8.64,8.66 7.31,0 10.38,-4.57 11.77,-14.49l4.88 -34.79c3.2,1.81 5.85,4.41 10.51,4.41 5.02,0 8.29,-3.94 8.92,-8.9 0.28,-1.57 0.28,-3.07 0,-4.17 -0.07,-0.31 -0.28,-0.39 -0.56,-0.16 -2.3,2.29 -5.5,2.99 -8.98,2.99 -5.37,0 -12.82,-1.81 -18.81,-1.81 -15.88,0 -24.1,10.87 -25.63,21.97 -1.11,7.55 3.34,14.01 11.84,14.01 1.53,0 3.28,-0.24 5.09,-0.71 0.48,-0.16 0.62,-0.39 0.2,-0.71 -3.83,-3.15 -6.4,-8.89 -5.5,-15.03 0.98,-7.17 4.53,-13.54 12.82,-14.1l-5.5 39.44zm46.82 -19.28c1.19,-8.27 -4.04,-10.71 -9.4,-10.71 -10.66,0 -16.16,9.37 -17.83,21.41 -1.74,12.52 2.72,20.63 14.84,20.63 8.77,0 15.81,-5.36 19.22,-15.2 0.14,-0.31 0,-0.47 -0.28,-0.47l-3.41 0c-0.14,0 -0.28,0.08 -0.42,0.32 -2.93,7.24 -7.66,9.13 -11.77,9.13 -6.27,0 -8.29,-6.22 -8.08,-12.68 7.03,-0.39 15.88,-3.38 17.13,-12.43zm-16.71 7.95c0.63,-5.04 3.13,-13.93 7.87,-13.93 2.02,0 2.92,1.57 2.65,3.77 -0.77,5.51 -4.81,9.21 -10.52,10.16zm35.61 -18.66c-11.07,0 -16.43,10.24 -17.97,21.26 -1.81,13.22 3.21,20.78 14.84,20.78 8.7,0 15.88,-5.28 19.22,-15.2 0.14,-0.31 0,-0.47 -0.28,-0.47l-3.41 0c-0.14,0 -0.28,0.08 -0.42,0.32 -2.44,5.9 -6.68,9.13 -11.77,9.13 -7.03,0 -9.05,-7.24 -7.87,-15.27 0.7,-4.96 3.07,-15.43 9.33,-15.43 1.54,0 2.93,0.79 3.63,2.12 -1.81,0.71 -3.9,2.29 -4.25,4.73 -0.35,2.52 1.18,3.93 3.27,3.93 2.93,0 5.29,-3.07 5.71,-6.14 1.05,-7.32 -4.46,-9.76 -10.03,-9.76zm7.97 41.25l9.19 0c0.21,0 0.35,-0.16 0.42,-0.39l3.41 -24.72c1.39,-2.44 4.74,-6.54 7.66,-6.54 1.81,0 2.58,1.58 1.88,6.15 -0.55,3.85 -1.67,7.87 -2.16,11.64 -1.25,8.03 -0.62,14.65 7.11,14.65 7.31,0 11.21,-8.27 13.79,-15.2 0.07,-0.23 0,-0.47 -0.21,-0.47l-3.41 0c-0.21,0 -0.28,0.08 -0.42,0.24 -1.12,2.44 -3.27,8.03 -5.78,8.03 -2.44,0 -1.47,-4.88 -1.12,-6.93 0.56,-4.01 1.88,-9.37 2.44,-13.38 1.19,-7.32 0.84,-14.33 -6.69,-14.33 -5.22,0 -9.19,4.41 -12.04,8.9l3.48 -24.88c0.07,-0.31 -0.07,-0.47 -0.28,-0.39l-9.33 1.02c-0.21,0 -0.42,0.16 -0.42,0.4l-7.8 55.81c-0.07,0.23 0.07,0.39 0.28,0.39z"/>
   <path class="fil3" d="M408.62 173.35l0 4.63 -29.1 0 0 -50.68 5.77 0 0 46.05 23.33 0zm33.38 -11.01l-21.01 0 -5.23 15.64 -5.93 0 17.63 -50.68 7.93 0 18.16 50.68 -6 0 -5.55 -15.64zm-19.55 -4.49l18.01 0 -9.08 -26.57 -8.93 26.57zm55.56 -18.9c3.08,0 5.77,0.75 8.08,2.25 2.31,1.5 4.1,3.6 5.35,6.3 1.26,2.7 1.89,5.84 1.89,9.41l0 3.77c0,3.38 -0.72,6.45 -2.16,9.23 -1.43,2.77 -3.41,4.96 -5.92,6.55 -2.52,1.6 -5.34,2.39 -8.47,2.39 -4.46,0 -8.26,-1.54 -11.39,-4.63l-0.54 3.76 -4.62 0 0 -53.58 5.7 0 0 19.55c2.97,-3.33 7,-5 12.08,-5zm9.62 17.89c0,-4.34 -0.91,-7.69 -2.73,-10.03 -1.82,-2.34 -4.4,-3.51 -7.74,-3.51 -2.36,0 -4.49,0.49 -6.38,1.48 -1.9,0.99 -3.52,2.38 -4.85,4.17l0 21.07c2.67,3.04 6.05,4.56 10.16,4.56 3.44,0 6.22,-1.24 8.35,-3.73 2.13,-2.49 3.19,-5.83 3.19,-10.03l0 -3.98zm17.15 3.69l0 0.15c0,4.44 1.16,7.87 3.47,10.28 2.3,2.41 5.54,3.62 9.69,3.62 2.16,0 4.08,-0.3 5.78,-0.91 1.69,-0.6 3.46,-1.48 5.31,-2.64l2.23 3.48c-1.75,1.25 -3.8,2.29 -6.16,3.11 -2.36,0.82 -4.85,1.23 -7.47,1.23 -3.74,0 -7.01,-0.78 -9.81,-2.35 -2.79,-1.57 -4.92,-3.73 -6.39,-6.48 -1.46,-2.75 -2.19,-5.87 -2.19,-9.34l0 -3.77c0,-3.33 0.71,-6.36 2.12,-9.09 1.41,-2.72 3.41,-4.88 6,-6.48 2.59,-1.59 5.63,-2.39 9.12,-2.39 5.18,0 9.24,1.61 12.16,4.82 2.93,3.21 4.39,7.66 4.39,13.36 0,1.4 -0.08,2.53 -0.23,3.4l-28.02 0zm11.7 -17.3c-3.64,0 -6.49,1.19 -8.54,3.58 -2.05,2.39 -3.11,5.66 -3.16,9.81l23.09 0 0 -0.5c0,-4.01 -0.98,-7.16 -2.96,-9.45 -1.98,-2.3 -4.79,-3.44 -8.43,-3.44zm30.08 27.73c0,1.25 0.26,2.15 0.77,2.68 0.51,0.53 1.34,0.79 2.46,0.79 0.82,0 1.62,-0.09 2.39,-0.28l0.77 3.83c-1.49,0.58 -3.03,0.87 -4.62,0.87 -2.31,0 -4.13,-0.61 -5.46,-1.85 -1.34,-1.23 -2,-2.98 -2,-5.24l0 -47.36 5.69 0 0 46.56zm25.46 7.89c-6.05,0 -11.26,-1.64 -15.62,-4.92l2.92 -3.48c1.75,1.35 3.61,2.38 5.58,3.08 1.98,0.7 4.2,1.05 6.66,1.05 3.13,0 5.56,-0.52 7.27,-1.56 1.72,-1.04 2.58,-2.54 2.58,-4.52l0 -0.58c0,-1.74 -0.55,-3.08 -1.65,-4.02 -1.1,-0.94 -3.17,-1.9 -6.2,-2.86l-5.39 -1.81c-3.43,-1.11 -5.95,-2.39 -7.54,-3.84 -1.59,-1.45 -2.39,-3.33 -2.39,-5.65l0 -1.23c0,-1.83 0.61,-3.47 1.81,-4.92 1.21,-1.45 2.89,-2.58 5.05,-3.4 2.15,-0.82 4.56,-1.24 7.23,-1.24 2.77,0 5.39,0.4 7.85,1.2 2.47,0.8 4.65,1.94 6.54,3.44l-2.84 3.18c-1.95,-1.25 -3.81,-2.14 -5.58,-2.67 -1.77,-0.54 -3.74,-0.8 -5.89,-0.8 -2.62,0 -4.68,0.46 -6.2,1.37 -1.51,0.92 -2.27,2.18 -2.27,3.77l0 0.58c0,1.45 0.57,2.63 1.69,3.55 1.13,0.91 3.16,1.86 6.09,2.82l5.38 1.81c3.39,1.11 5.9,2.4 7.55,3.88 1.64,1.47 2.46,3.56 2.46,6.26l0 1.23c0,3.19 -1.42,5.7 -4.27,7.53 -2.85,1.83 -6.46,2.75 -10.82,2.75z"/>
   <path class="fil3" d="M2.49 212.85l2.75 -0.26c0.13,1.2 0.43,2.18 0.91,2.95 0.48,0.77 1.22,1.39 2.23,1.87 1,0.47 2.13,0.71 3.39,0.71 1.12,0 2.11,-0.18 2.96,-0.54 0.86,-0.36 1.49,-0.86 1.91,-1.48 0.41,-0.63 0.63,-1.31 0.63,-2.05 0,-0.74 -0.21,-1.39 -0.61,-1.95 -0.4,-0.56 -1.06,-1.02 -1.99,-1.41 -0.59,-0.24 -1.91,-0.63 -3.94,-1.16 -2.04,-0.53 -3.46,-1.02 -4.28,-1.49 -1.05,-0.6 -1.83,-1.34 -2.35,-2.22 -0.52,-0.89 -0.78,-1.88 -0.78,-2.98 0,-1.21 0.32,-2.33 0.95,-3.38 0.64,-1.05 1.56,-1.84 2.78,-2.39 1.22,-0.54 2.57,-0.81 4.06,-0.81 1.64,0 3.09,0.28 4.34,0.85 1.25,0.57 2.22,1.41 2.89,2.52 0.68,1.1 1.04,2.36 1.09,3.76l-2.81 0.23c-0.15,-1.5 -0.66,-2.64 -1.53,-3.41 -0.87,-0.77 -2.16,-1.15 -3.86,-1.15 -1.78,0 -3.07,0.35 -3.88,1.05 -0.81,0.7 -1.22,1.54 -1.22,2.53 0,0.85 0.29,1.56 0.87,2.11 0.56,0.56 2.03,1.13 4.41,1.71 2.38,0.58 4.02,1.08 4.9,1.52 1.29,0.64 2.24,1.44 2.85,2.42 0.61,0.98 0.92,2.11 0.92,3.39 0,1.27 -0.34,2.46 -1.01,3.58 -0.68,1.12 -1.64,1.99 -2.9,2.62 -1.26,0.62 -2.68,0.93 -4.26,0.93 -2,0 -3.68,-0.32 -5.03,-0.95 -1.35,-0.62 -2.41,-1.57 -3.18,-2.83 -0.77,-1.26 -1.17,-2.69 -1.21,-4.29zm21.52 7.67l0 -23.86 4.39 0 5.23 16.89c0.49,1.57 0.84,2.75 1.06,3.53 0.25,-0.87 0.65,-2.14 1.18,-3.83l5.33 -16.59 3.92 0 0 23.86 -2.81 0 0 -19.96 -6.46 19.96 -2.64 0 -6.39 -20.33 0 20.33 -2.81 0zm23.39 0l8.49 -23.86 3.22 0 9.01 23.86 -3.33 0 -2.56 -7.23 -9.32 0 -2.41 7.23 -3.1 0zm6.37 -9.8l7.54 0 -2.31 -6.61c-0.69,-2.02 -1.22,-3.68 -1.59,-4.99 -0.3,1.56 -0.71,3.09 -1.22,4.6l-2.42 7zm16.74 9.8l0 -23.86 9.81 0c1.97,0 3.47,0.21 4.5,0.64 1.02,0.43 1.84,1.18 2.46,2.27 0.61,1.08 0.91,2.28 0.91,3.59 0,1.7 -0.51,3.12 -1.52,4.28 -1.02,1.16 -2.58,1.9 -4.71,2.21 0.78,0.4 1.37,0.8 1.77,1.19 0.86,0.85 1.67,1.91 2.42,3.18l3.83 6.5 -3.66 0 -2.92 -4.97c-0.85,-1.43 -1.56,-2.53 -2.11,-3.29 -0.56,-0.76 -1.05,-1.29 -1.49,-1.59 -0.43,-0.3 -0.88,-0.52 -1.33,-0.64 -0.34,-0.07 -0.88,-0.11 -1.63,-0.11l-3.39 0 0 10.6 -2.94 0zm2.94 -13.33l6.28 0c1.34,0 2.38,-0.15 3.14,-0.45 0.75,-0.3 1.32,-0.77 1.71,-1.43 0.39,-0.66 0.58,-1.37 0.58,-2.14 0,-1.13 -0.37,-2.06 -1.13,-2.79 -0.76,-0.73 -1.95,-1.09 -3.59,-1.09l-6.99 0 0 7.9zm24.4 13.33l0 -21.06 -7.3 0 0 -2.8 17.53 0 0 2.8 -7.3 0 0 21.06 -2.93 0zm25.11 0l-5.83 -23.86 3.04 0 3.32 15.64c0.36,1.64 0.68,3.27 0.95,4.88 0.58,-2.54 0.92,-4.01 1.02,-4.4l4.19 -16.12 3.53 0 3.17 12.08c0.78,3 1.36,5.81 1.73,8.44 0.29,-1.51 0.67,-3.23 1.13,-5.18l3.45 -15.34 2.95 0 -6.06 23.86 -2.85 0 -4.65 -18.18c-0.39,-1.52 -0.63,-2.46 -0.71,-2.8 -0.26,1.09 -0.48,2.02 -0.68,2.79l-4.64 18.19 -3.06 0zm25.42 0l0 -23.86 15.99 0 0 2.8 -13.05 0 0 7.33 12.21 0 0 2.8 -12.21 0 0 8.13 13.57 0 0 2.8 -16.51 0zm18.14 0l8.49 -23.86 3.22 0 9.01 23.86 -3.33 0 -2.56 -7.23 -9.32 0 -2.4 7.23 -3.11 0zm6.37 -9.8l7.54 0 -2.31 -6.61c-0.69,-2.02 -1.22,-3.68 -1.59,-4.99 -0.3,1.56 -0.71,3.09 -1.22,4.6l-2.42 7zm20.69 9.8l-8.55 -23.86 3.17 0 5.75 17.34c0.46,1.39 0.85,2.69 1.16,3.9 0.34,-1.3 0.74,-2.6 1.19,-3.9l5.97 -17.34 2.99 0 -8.63 23.86 -3.05 0zm14.81 0l0 -23.86 2.94 0 0 23.86 -2.94 0zm8.07 0l0 -23.86 3.01 0 11.61 18.73 0 -18.73 2.81 0 0 23.86 -3 0 -11.62 -18.73 0 18.73 -2.81 0zm32.72 -9.37l0 -2.8 9.36 0 0 8.85c-1.43,1.23 -2.92,2.16 -4.45,2.79 -1.53,0.62 -3.1,0.93 -4.71,0.93 -2.17,0 -4.15,-0.5 -5.93,-1.51 -1.77,-1 -3.11,-2.45 -4.01,-4.35 -0.91,-1.9 -1.37,-4.02 -1.37,-6.36 0,-2.32 0.45,-4.48 1.36,-6.5 0.9,-2.01 2.19,-3.51 3.88,-4.48 1.69,-0.97 3.64,-1.46 5.84,-1.46 1.6,0 3.05,0.27 4.34,0.83 1.3,0.57 2.31,1.34 3.04,2.34 0.74,1 1.3,2.3 1.68,3.91l-2.65 0.78c-0.33,-1.22 -0.74,-2.17 -1.23,-2.87 -0.5,-0.69 -1.2,-1.25 -2.11,-1.67 -0.92,-0.41 -1.93,-0.62 -3.05,-0.62 -1.34,0 -2.49,0.22 -3.47,0.66 -0.97,0.44 -1.76,1.01 -2.36,1.74 -0.6,0.71 -1.06,1.5 -1.39,2.36 -0.56,1.48 -0.84,3.08 -0.84,4.81 0,2.13 0.34,3.91 1.01,5.35 0.68,1.43 1.67,2.5 2.96,3.2 1.3,0.69 2.68,1.04 4.14,1.04 1.26,0 2.5,-0.27 3.71,-0.79 1.2,-0.54 2.11,-1.1 2.74,-1.7l0 -4.48 -6.49 0zm14.12 9.37l0 -3.33 3.09 0 0 3.33 -3.09 0zm7.2 -7.67l2.75 -0.26c0.13,1.2 0.43,2.18 0.91,2.95 0.48,0.77 1.22,1.39 2.23,1.87 1,0.47 2.14,0.71 3.39,0.71 1.12,0 2.11,-0.18 2.96,-0.54 0.86,-0.36 1.49,-0.86 1.91,-1.48 0.42,-0.63 0.63,-1.31 0.63,-2.05 0,-0.74 -0.2,-1.39 -0.6,-1.95 -0.41,-0.56 -1.07,-1.02 -2,-1.41 -0.59,-0.24 -1.91,-0.63 -3.94,-1.16 -2.04,-0.53 -3.46,-1.02 -4.27,-1.49 -1.06,-0.6 -1.84,-1.34 -2.36,-2.22 -0.52,-0.89 -0.78,-1.88 -0.78,-2.98 0,-1.21 0.32,-2.33 0.96,-3.38 0.63,-1.05 1.55,-1.84 2.77,-2.39 1.22,-0.54 2.58,-0.81 4.06,-0.81 1.64,0 3.09,0.28 4.34,0.85 1.26,0.57 2.22,1.41 2.9,2.52 0.67,1.1 1.03,2.36 1.08,3.76l-2.81 0.23c-0.15,-1.5 -0.66,-2.64 -1.53,-3.41 -0.87,-0.77 -2.16,-1.15 -3.86,-1.15 -1.77,0 -3.07,0.35 -3.88,1.05 -0.81,0.7 -1.21,1.54 -1.21,2.53 0,0.85 0.29,1.56 0.86,2.11 0.56,0.56 2.03,1.13 4.41,1.71 2.38,0.58 4.02,1.08 4.9,1.52 1.29,0.64 2.24,1.44 2.85,2.42 0.62,0.98 0.92,2.11 0.92,3.39 0,1.27 -0.33,2.46 -1.01,3.58 -0.67,1.12 -1.64,1.99 -2.9,2.62 -1.26,0.62 -2.68,0.93 -4.26,0.93 -2,0 -3.68,-0.32 -5.03,-0.95 -1.35,-0.62 -2.41,-1.57 -3.17,-2.83 -0.78,-1.26 -1.18,-2.69 -1.22,-4.29zm27.21 7.67l0 -21.06 -7.3 0 0 -2.8 17.53 0 0 2.8 -7.3 0 0 21.06 -2.93 0zm13.32 0l0 -23.86 9.81 0c1.97,0 3.47,0.21 4.5,0.64 1.02,0.43 1.84,1.18 2.46,2.27 0.61,1.08 0.91,2.28 0.91,3.59 0,1.7 -0.51,3.12 -1.52,4.28 -1.02,1.16 -2.58,1.9 -4.71,2.21 0.78,0.4 1.37,0.8 1.77,1.19 0.86,0.85 1.67,1.91 2.42,3.18l3.83 6.5 -3.66 0 -2.92 -4.97c-0.85,-1.43 -1.56,-2.53 -2.11,-3.29 -0.56,-0.76 -1.05,-1.29 -1.49,-1.59 -0.43,-0.3 -0.88,-0.52 -1.33,-0.64 -0.34,-0.07 -0.88,-0.11 -1.63,-0.11l-3.4 0 0 10.6 -2.93 0zm2.93 -13.33l6.29 0c1.34,0 2.38,-0.15 3.14,-0.45 0.75,-0.3 1.32,-0.77 1.71,-1.43 0.39,-0.66 0.58,-1.37 0.58,-2.14 0,-1.13 -0.37,-2.06 -1.13,-2.79 -0.76,-0.73 -1.95,-1.09 -3.59,-1.09l-7 0 0 7.9zm18.44 1.71c0,-3.95 0.99,-7.05 2.96,-9.29 1.97,-2.24 4.52,-3.35 7.64,-3.35 2.05,0 3.89,0.52 5.53,1.57 1.64,1.05 2.89,2.52 3.75,4.4 0.87,1.88 1.3,4.01 1.3,6.4 0,2.41 -0.45,4.58 -1.36,6.49 -0.91,1.91 -2.19,3.35 -3.85,4.33 -1.67,0.98 -3.46,1.47 -5.38,1.47 -2.09,0 -3.95,-0.55 -5.59,-1.63 -1.64,-1.08 -2.89,-2.56 -3.73,-4.44 -0.85,-1.87 -1.27,-3.85 -1.27,-5.95zm3.03 0.06c0,2.87 0.71,5.13 2.15,6.78 1.43,1.65 3.23,2.48 5.39,2.48 2.21,0 4.02,-0.83 5.45,-2.5 1.42,-1.67 2.13,-4.03 2.13,-7.1 0,-1.94 -0.31,-3.63 -0.91,-5.08 -0.61,-1.44 -1.5,-2.56 -2.67,-3.36 -1.18,-0.79 -2.49,-1.19 -3.95,-1.19 -2.07,0 -3.85,0.77 -5.35,2.3 -1.49,1.53 -2.24,4.09 -2.24,7.67zm21.88 11.56l0 -23.86 3.01 0 11.62 18.73 0 -18.73 2.81 0 0 23.86 -3.01 0 -11.61 -18.73 0 18.73 -2.82 0zm32.72 -9.37l0 -2.8 9.37 0 0 8.85c-1.44,1.23 -2.92,2.16 -4.45,2.79 -1.53,0.62 -3.1,0.93 -4.71,0.93 -2.18,0 -4.15,-0.5 -5.93,-1.51 -1.77,-1 -3.12,-2.45 -4.02,-4.35 -0.9,-1.9 -1.36,-4.02 -1.36,-6.36 0,-2.32 0.45,-4.48 1.35,-6.5 0.9,-2.01 2.2,-3.51 3.89,-4.48 1.69,-0.97 3.64,-1.46 5.84,-1.46 1.6,0 3.05,0.27 4.34,0.83 1.29,0.57 2.31,1.34 3.04,2.34 0.74,1 1.29,2.3 1.68,3.91l-2.65 0.78c-0.33,-1.22 -0.74,-2.17 -1.23,-2.87 -0.5,-0.69 -1.2,-1.25 -2.12,-1.67 -0.91,-0.41 -1.93,-0.62 -3.04,-0.62 -1.34,0 -2.49,0.22 -3.47,0.66 -0.97,0.44 -1.76,1.01 -2.36,1.74 -0.6,0.71 -1.06,1.5 -1.39,2.36 -0.57,1.48 -0.85,3.08 -0.85,4.81 0,2.13 0.34,3.91 1.02,5.35 0.68,1.43 1.67,2.5 2.96,3.2 1.3,0.69 2.67,1.04 4.13,1.04 1.27,0 2.51,-0.27 3.71,-0.79 1.21,-0.54 2.12,-1.1 2.75,-1.7l0 -4.48 -6.5 0zm22.16 9.37l0 -23.86 8.31 0c1.69,0 3.04,0.24 4.07,0.72 1.02,0.48 1.82,1.23 2.39,2.23 0.59,1 0.88,2.05 0.88,3.15 0,1.02 -0.26,1.98 -0.77,2.88 -0.51,0.9 -1.28,1.63 -2.32,2.18 1.34,0.42 2.37,1.15 3.09,2.17 0.72,1.01 1.08,2.22 1.08,3.61 0,1.12 -0.22,2.16 -0.66,3.12 -0.44,0.96 -0.98,1.7 -1.62,2.22 -0.65,0.52 -1.46,0.91 -2.43,1.18 -0.97,0.27 -2.16,0.4 -3.57,0.4l-8.45 0zm2.94 -13.83l4.79 0c1.29,0 2.23,-0.1 2.79,-0.28 0.75,-0.24 1.31,-0.64 1.68,-1.19 0.38,-0.56 0.57,-1.25 0.57,-2.09 0,-0.8 -0.17,-1.5 -0.53,-2.1 -0.35,-0.6 -0.86,-1.02 -1.51,-1.24 -0.66,-0.22 -1.78,-0.33 -3.36,-0.33l-4.43 0 0 7.23zm0 11.03l5.51 0c0.95,0 1.62,-0.04 2,-0.12 0.67,-0.12 1.24,-0.34 1.69,-0.65 0.46,-0.3 0.83,-0.75 1.12,-1.33 0.29,-0.58 0.44,-1.26 0.44,-2.02 0,-0.89 -0.21,-1.66 -0.64,-2.32 -0.42,-0.66 -1.01,-1.13 -1.76,-1.39 -0.75,-0.27 -1.83,-0.4 -3.24,-0.4l-5.12 0 0 8.23zm17.87 2.8l0 -23.86 9.81 0c1.97,0 3.47,0.21 4.5,0.64 1.03,0.43 1.84,1.18 2.46,2.27 0.61,1.08 0.92,2.28 0.92,3.59 0,1.7 -0.52,3.12 -1.53,4.28 -1.02,1.16 -2.58,1.9 -4.7,2.21 0.77,0.4 1.36,0.8 1.76,1.19 0.86,0.85 1.67,1.91 2.42,3.18l3.83 6.5 -3.66 0 -2.92 -4.97c-0.85,-1.43 -1.56,-2.53 -2.11,-3.29 -0.56,-0.76 -1.05,-1.29 -1.49,-1.59 -0.43,-0.3 -0.88,-0.52 -1.33,-0.64 -0.33,-0.07 -0.87,-0.11 -1.63,-0.11l-3.39 0 0 10.6 -2.94 0zm2.94 -13.33l6.28 0c1.34,0 2.38,-0.15 3.14,-0.45 0.75,-0.3 1.32,-0.77 1.71,-1.43 0.39,-0.66 0.58,-1.37 0.58,-2.14 0,-1.13 -0.37,-2.06 -1.13,-2.79 -0.76,-0.73 -1.95,-1.09 -3.59,-1.09l-6.99 0 0 7.9zm16.9 13.33l8.49 -23.86 3.22 0 9.02 23.86 -3.34 0 -2.56 -7.23 -9.32 0 -2.4 7.23 -3.11 0zm6.37 -9.8l7.54 0 -2.31 -6.61c-0.69,-2.02 -1.22,-3.68 -1.58,-4.99 -0.31,1.56 -0.71,3.09 -1.22,4.6l-2.43 7zm16.65 9.8l0 -23.86 3.01 0 11.61 18.73 0 -18.73 2.82 0 0 23.86 -3.01 0 -11.62 -18.73 0 18.73 -2.81 0zm22.36 0l0 -23.86 7.62 0c1.73,0 3.04,0.11 3.95,0.33 1.27,0.32 2.35,0.89 3.24,1.72 1.17,1.06 2.04,2.42 2.62,4.07 0.58,1.66 0.87,3.55 0.87,5.68 0,1.81 -0.19,3.42 -0.59,4.82 -0.39,1.39 -0.89,2.56 -1.5,3.47 -0.62,0.92 -1.29,1.64 -2.02,2.16 -0.73,0.53 -1.61,0.93 -2.64,1.2 -1.04,0.28 -2.22,0.41 -3.56,0.41l-7.99 0zm2.94 -2.8l4.72 0c1.45,0 2.6,-0.15 3.43,-0.44 0.83,-0.29 1.49,-0.71 1.98,-1.24 0.69,-0.75 1.23,-1.76 1.62,-3.03 0.39,-1.26 0.58,-2.79 0.58,-4.6 0,-2.5 -0.38,-4.42 -1.14,-5.77 -0.75,-1.34 -1.68,-2.24 -2.76,-2.7 -0.79,-0.32 -2.05,-0.48 -3.79,-0.48l-4.64 0 0 18.26zm19.88 2.8l0 -23.86 2.94 0 0 23.86 -2.94 0zm8.07 0l0 -23.86 3.01 0 11.61 18.73 0 -18.73 2.81 0 0 23.86 -3 0 -11.62 -18.73 0 18.73 -2.81 0zm32.71 -9.37l0 -2.8 9.37 0 0 8.85c-1.43,1.23 -2.92,2.16 -4.45,2.79 -1.53,0.62 -3.1,0.93 -4.71,0.93 -2.17,0 -4.15,-0.5 -5.93,-1.51 -1.77,-1 -3.11,-2.45 -4.01,-4.35 -0.91,-1.9 -1.37,-4.02 -1.37,-6.36 0,-2.32 0.45,-4.48 1.35,-6.5 0.91,-2.01 2.2,-3.51 3.89,-4.48 1.69,-0.97 3.64,-1.46 5.84,-1.46 1.6,0 3.05,0.27 4.34,0.83 1.3,0.57 2.31,1.34 3.04,2.34 0.74,1 1.3,2.3 1.68,3.91l-2.65 0.78c-0.33,-1.22 -0.74,-2.17 -1.23,-2.87 -0.5,-0.69 -1.2,-1.25 -2.12,-1.67 -0.91,-0.41 -1.92,-0.62 -3.04,-0.62 -1.34,0 -2.49,0.22 -3.47,0.66 -0.97,0.44 -1.76,1.01 -2.36,1.74 -0.6,0.71 -1.06,1.5 -1.39,2.36 -0.56,1.48 -0.85,3.08 -0.85,4.81 0,2.13 0.34,3.91 1.02,5.35 0.68,1.43 1.67,2.5 2.96,3.2 1.3,0.69 2.68,1.04 4.14,1.04 1.26,0 2.5,-0.27 3.71,-0.79 1.2,-0.54 2.11,-1.1 2.74,-1.7l0 -4.48 -6.5 0zm14.13 9.37l0 -3.33 3.09 0 0 3.33 -3.09 0z"/>
  </g>
 </g>
</svg>
